<svg width="462" height="233" viewBox="0 0 462 233" fill="none" xmlns="http://www.w3.org/2000/svg">
<path d="M273.137 64.4238C270.897 65.1918 268.881 66.0566 267.089 67.0166C265.297 67.9126 263.473 69.1925 261.617 70.8564C259.761 72.4564 257.777 74.5684 255.665 77.1924C253.553 79.7523 251.057 83.0799 248.177 87.1758C245.361 91.2718 242.033 96.2644 238.193 102.152C234.417 107.976 229.905 114.984 224.657 123.176C223.121 125.672 221.649 128.168 220.241 130.664C218.897 133.16 217.712 135.529 216.688 137.769C215.601 139.944 214.769 141.992 214.193 143.912C213.553 145.768 213.232 147.368 213.232 148.712C213.232 151.272 214.513 152.552 217.073 152.552C218.609 152.552 220.561 151.624 222.929 149.769C225.361 147.849 227.921 145.448 230.609 142.568C233.361 139.688 236.113 136.552 238.865 133.16C241.516 129.893 243.899 126.832 246.016 123.98C247.13 122.197 248.361 120.264 249.71 118.185C250.606 116.841 251.374 115.688 252.014 114.729C252.718 113.705 253.422 112.648 254.126 111.561C254.83 110.409 255.598 109.128 256.43 107.72C257.262 106.312 258.286 104.52 259.502 102.344H264.782C262.158 106.376 259.342 110.664 256.334 115.208C253.39 119.688 250.67 124.072 248.174 128.36C245.678 132.584 243.598 136.488 241.934 140.072C240.27 143.656 239.438 146.504 239.438 148.616C239.438 150.984 240.654 152.168 243.086 152.168C244.686 152.168 246.478 151.528 248.462 150.248C250.446 148.904 252.526 147.176 254.702 145.064C256.878 142.888 259.053 140.424 261.229 137.672C263.469 134.92 265.646 132.104 267.758 129.225C272.622 122.569 277.614 114.952 282.734 106.376C283.054 105.928 283.31 105.48 283.502 105.032C283.758 104.584 283.982 104.168 284.174 103.784C284.43 103.272 284.654 102.792 284.846 102.344H290.51C288.398 105.864 286.062 109.673 283.502 113.769C281.006 117.8 278.478 121.928 275.918 126.152C273.358 130.312 270.83 134.44 268.334 138.536C265.902 142.568 263.63 146.313 261.518 149.769C256.846 157.512 252.494 163.912 248.462 168.968C245.904 172.216 243.475 175.039 241.175 177.437C241.377 177.429 241.58 177.424 241.782 177.424C244.214 177.424 246.006 177.904 247.158 178.864C248.374 179.824 248.981 181.136 248.981 182.8C248.981 184.912 248.086 187.344 246.294 190.096C244.566 192.848 242.134 195.536 238.998 198.16C235.862 200.72 232.118 202.993 227.766 204.977C223.478 206.896 218.773 208.144 213.653 208.72C212.245 211.408 211.126 214 210.294 216.496C209.462 218.992 209.046 221.168 209.046 223.024C209.046 225.008 209.558 226.608 210.582 227.824C211.606 228.976 213.238 229.552 215.478 229.552C217.782 229.552 220.182 229.008 222.678 227.92C225.174 226.768 227.67 225.296 230.166 223.504C232.662 221.712 235.062 219.728 237.366 217.552C239.67 215.376 241.814 213.232 243.798 211.12C245.782 208.944 247.509 206.928 248.981 205.072C250.517 203.216 251.702 201.744 252.534 200.656L253.878 201.136C252.918 202.48 251.605 204.177 249.941 206.225C248.341 208.208 246.486 210.321 244.374 212.561C242.326 214.737 240.085 216.945 237.653 219.185C235.222 221.36 232.758 223.344 230.262 225.136C227.83 226.864 225.366 228.272 222.87 229.36C220.438 230.448 218.134 230.992 215.958 230.992C211.99 230.992 209.174 230.032 207.51 228.112C205.782 226.128 204.918 223.6 204.918 220.528C204.918 217.904 205.462 215.025 206.55 211.889C206.982 210.566 207.488 209.243 208.068 207.92C207.191 209.051 206.356 210.119 205.56 211.12C203.384 213.936 201.432 216.368 199.704 218.416C198.04 220.336 196.312 222.161 194.52 223.889C192.792 225.552 190.936 227.057 188.952 228.4C186.968 229.68 184.824 230.672 182.52 231.376C180.28 232.144 177.816 232.528 175.128 232.528C172.632 232.528 170.52 232.112 168.792 231.28C167.064 230.512 165.655 229.552 164.567 228.4C163.479 227.184 162.712 225.872 162.264 224.464C161.752 222.992 161.496 221.648 161.496 220.433C161.496 218.641 161.783 217.008 162.359 215.536C162.871 214.064 163.544 212.753 164.376 211.601C165.144 210.449 166.008 209.456 166.968 208.624C167.928 207.728 168.792 206.96 169.56 206.32L170.231 207.185C167.8 209.04 165.944 211.088 164.664 213.328C163.32 215.568 162.647 217.776 162.647 219.952C162.647 221.488 162.936 222.96 163.512 224.368C164.088 225.712 164.888 226.896 165.912 227.92C166.872 228.944 167.992 229.776 169.271 230.416C170.615 230.992 172.024 231.28 173.496 231.28C175.224 231.28 177.016 231.024 178.872 230.512C180.792 229.936 182.551 228.976 184.151 227.632C185.751 226.288 187.064 224.496 188.088 222.256C189.176 220.016 189.72 217.2 189.72 213.809C189.72 211.185 189.304 208.688 188.472 206.32C187.704 203.952 186.84 201.68 185.88 199.504C184.984 197.328 184.12 195.248 183.288 193.265C182.52 191.281 182.136 189.36 182.136 187.504C182.136 186.864 182.167 186.416 182.231 186.16C180.183 188.592 178.168 191.12 176.184 193.744C174.2 196.304 172.311 198.768 170.52 201.136L169.176 200.656C172.056 196.816 174.615 193.488 176.855 190.672C179.159 187.792 181.271 185.232 183.191 182.992C184.151 180.944 185.624 179.217 187.607 177.809C189.591 176.401 191.704 175.696 193.943 175.696C194.519 175.696 195.256 175.792 196.151 175.984C197.047 176.112 197.912 176.464 198.744 177.04C199.576 177.552 200.28 178.32 200.855 179.344C201.495 180.368 201.815 181.745 201.815 183.473C201.815 185.712 201.208 188.304 199.992 191.248L193.464 191.057C194.296 189.841 195.032 188.592 195.672 187.312C196.248 186.224 196.76 185.104 197.208 183.952C197.656 182.736 197.88 181.584 197.88 180.496C197.88 179.408 197.56 178.544 196.92 177.904C196.28 177.2 195.128 176.849 193.464 176.849C192.184 176.849 190.936 177.2 189.72 177.904C188.504 178.544 187.416 179.408 186.456 180.496C185.56 181.52 184.824 182.672 184.248 183.952C183.736 185.232 183.479 186.48 183.479 187.696C183.608 189.616 184.312 191.536 185.592 193.456C186.872 195.312 188.248 197.296 189.72 199.408C191.192 201.52 192.504 203.793 193.656 206.225C194.872 208.592 195.479 211.216 195.479 214.096C195.479 215.952 195.256 217.649 194.808 219.185C194.424 220.656 193.88 222.033 193.176 223.312C194.648 221.905 195.959 220.528 197.111 219.185C198.263 217.841 199.256 216.656 200.088 215.632C202.136 213.2 204.152 210.704 206.136 208.145C208.184 205.521 210.104 203.024 211.896 200.656L211.925 200.666C213.475 198.104 215.236 195.604 217.206 193.168C218.273 191.849 219.364 190.597 220.479 189.413C220.431 189.414 220.382 189.416 220.334 189.416C218.286 189.416 216.462 189 214.862 188.168C213.262 187.4 211.918 186.44 210.83 185.288L211.598 184.521C212.558 185.48 213.614 186.248 214.766 186.824C215.918 187.4 217.198 187.688 218.605 187.688C220.001 187.688 221.539 187.354 223.22 186.688C223.769 186.177 224.325 185.681 224.886 185.2C227.638 182.832 230.454 180.944 233.334 179.536C233.356 179.525 233.379 179.514 233.401 179.503C233.651 179.261 233.904 179.014 234.158 178.76C237.358 175.56 240.974 171.304 245.006 165.992C249.038 160.68 253.486 154.056 258.35 146.12L264.206 136.616C259.022 142.952 254.638 147.433 251.054 150.057C247.534 152.616 244.59 153.896 242.222 153.896C241.71 153.896 241.07 153.832 240.302 153.704C239.47 153.512 238.702 153.16 237.998 152.648C237.23 152.136 236.59 151.432 236.078 150.536C235.502 149.576 235.214 148.328 235.214 146.792C235.214 145.832 235.406 144.712 235.79 143.433C236.11 142.089 236.814 140.328 237.902 138.152C238.529 136.82 239.324 135.295 240.287 133.579C238.613 135.66 237.052 137.537 235.601 139.208C232.209 143.048 229.265 146.088 226.769 148.328C224.273 150.504 222.193 152.008 220.529 152.84C218.865 153.608 217.457 153.992 216.305 153.992C214.833 153.992 213.617 153.704 212.657 153.128C211.697 152.488 210.961 151.72 210.449 150.824C209.873 149.928 209.489 149 209.297 148.04C209.041 147.08 208.913 146.216 208.913 145.448C208.913 143.016 209.521 140.36 210.737 137.48C211.389 135.85 212.187 134.128 213.126 132.313C211.528 134.323 210.015 136.175 208.583 137.864C205.383 141.64 202.503 144.744 199.943 147.176C197.383 149.544 195.111 151.272 193.127 152.36C191.207 153.448 189.511 153.992 188.039 153.992C186.823 153.992 185.83 153.737 185.062 153.225C182.823 151.881 181.767 149.864 181.895 147.176C181.959 144.424 182.695 141.384 184.103 138.057C184.692 136.597 185.361 135.125 186.11 133.641C184.567 135.583 183.1 137.344 181.708 138.92C178.38 142.76 175.404 145.8 172.78 148.04C170.22 150.28 167.98 151.848 166.061 152.744C164.205 153.576 162.604 153.992 161.26 153.992C159.34 153.992 157.836 153.32 156.748 151.977C155.724 150.569 155.212 149 155.212 147.272C155.212 145.161 155.82 142.856 157.036 140.36C158.316 137.8 159.884 135.176 161.74 132.488C163.596 129.736 165.612 126.984 167.788 124.232C169.964 121.48 171.98 118.888 173.836 116.456C175.692 113.96 177.228 111.689 178.444 109.641C179.724 107.593 180.364 105.896 180.364 104.552C180.364 103.784 180.076 103.176 179.5 102.729C178.988 102.217 178.124 101.96 176.908 101.96C175.116 101.96 172.94 102.633 170.38 103.977C167.884 105.257 165.26 106.984 162.508 109.16C159.82 111.336 157.101 113.833 154.349 116.648C151.661 119.4 149.26 122.248 147.148 125.192C144.716 128.648 141.932 132.68 138.796 137.288C135.724 141.896 132.396 147.433 128.812 153.896H122.956C124.748 150.312 126.732 146.76 128.908 143.24C131.148 139.72 133.388 136.328 135.628 133.064C137.932 129.8 140.14 126.696 142.252 123.752C144.428 120.744 146.348 118.024 148.012 115.592C149.676 113.16 151.02 111.016 152.044 109.16C153.068 107.24 153.58 105.704 153.58 104.552C153.58 103.784 153.292 103.176 152.716 102.729C152.204 102.217 151.34 101.96 150.124 101.96C148.204 101.96 145.868 102.696 143.116 104.168C140.428 105.64 137.644 107.592 134.764 110.024C131.884 112.392 129.036 115.08 126.22 118.088C123.468 121.096 121.068 124.136 119.021 127.208L102.604 153.992H97.1318C101.036 147.528 104.492 141.864 107.5 137C110.508 132.072 113.132 127.816 115.372 124.232C117.548 120.585 119.404 117.513 120.94 115.017C122.476 112.521 123.725 110.472 124.685 108.872C126.924 105.096 128.204 102.953 128.524 102.44H134.38C133.74 103.4 133.228 104.168 132.844 104.744C132.46 105.32 131.98 106.056 131.404 106.952C130.892 107.784 130.156 108.936 129.196 110.408C128.3 111.88 126.988 114.057 125.26 116.937C130.892 110.857 135.916 106.537 140.332 103.977C144.812 101.417 148.492 100.136 151.372 100.136C152.78 100.136 153.9 100.392 154.732 100.904C155.564 101.352 156.204 101.896 156.652 102.536C157.1 103.176 157.389 103.848 157.517 104.552C157.645 105.256 157.708 105.864 157.708 106.376C157.708 108.36 156.876 110.76 155.212 113.576C160.332 108.584 164.908 105.065 168.94 103.017C172.972 100.969 176.3 99.9444 178.924 99.9443C180.204 99.9443 181.452 100.36 182.668 101.192C183.884 101.96 184.492 103.336 184.492 105.32C184.492 107.176 183.852 109.384 182.572 111.944C181.292 114.44 179.692 117.128 177.772 120.008C175.916 122.888 173.868 125.832 171.628 128.84C169.388 131.784 167.308 134.6 165.388 137.288C163.532 139.976 161.965 142.441 160.685 144.681C159.405 146.921 158.764 148.713 158.764 150.057C158.764 150.824 158.989 151.496 159.437 152.072C159.885 152.648 160.684 152.936 161.836 152.937C162.924 152.937 164.268 152.52 165.868 151.688C167.532 150.792 169.58 149.256 172.012 147.08C174.444 144.904 177.293 141.928 180.557 138.152C183.821 134.312 187.596 129.48 191.884 123.656L191.932 123.673C193.111 121.744 194.244 119.914 195.335 118.185C196.871 115.689 198.119 113.672 199.079 112.136C200.103 110.536 200.935 109.192 201.575 108.104C202.279 107.017 202.855 106.057 203.303 105.225C203.751 104.393 204.263 103.496 204.839 102.536H210.982C209.958 104.136 208.391 106.472 206.279 109.544C204.231 112.616 202.055 116.008 199.751 119.72C197.447 123.432 195.207 127.241 193.031 131.145C190.855 134.984 189.127 138.504 187.847 141.704C186.567 144.904 185.927 147.528 185.927 149.576C185.927 151.56 186.919 152.552 188.903 152.552C190.439 152.552 192.391 151.624 194.759 149.769C197.191 147.849 199.751 145.448 202.438 142.568C205.126 139.688 207.847 136.552 210.599 133.16C213.351 129.768 215.847 126.6 218.087 123.656L218.126 123.67C219.495 121.485 220.999 119.207 222.641 116.84C225.393 112.808 228.305 108.52 231.377 103.977C236.305 96.5528 240.657 90.4406 244.433 85.6406C248.209 80.8406 251.696 76.9357 254.896 73.9277C258.096 70.9198 261.105 68.6166 263.921 67.0166C266.801 65.4166 269.777 64.1358 272.849 63.1758L273.137 64.4238ZM294.631 175.696C295.207 175.696 295.943 175.792 296.839 175.984C297.735 176.112 298.6 176.464 299.432 177.04C300.263 177.552 300.967 178.32 301.543 179.344C302.183 180.368 302.503 181.745 302.503 183.473C302.503 185.712 301.896 188.304 300.68 191.248L294.151 191.057C294.983 189.841 295.719 188.592 296.359 187.312C296.935 186.224 297.448 185.104 297.896 183.952C298.343 182.736 298.567 181.584 298.567 180.496C298.567 179.408 298.247 178.544 297.607 177.904C296.967 177.2 295.815 176.849 294.151 176.849C292.871 176.849 291.623 177.2 290.407 177.904C289.191 178.544 288.103 179.408 287.144 180.496C286.248 181.52 285.512 182.672 284.936 183.952C284.424 185.232 284.167 186.48 284.167 187.696C284.295 189.616 284.999 191.536 286.279 193.456C287.559 195.312 288.935 197.296 290.407 199.408C291.879 201.52 293.192 203.793 294.344 206.225C295.56 208.592 296.167 211.216 296.167 214.096C296.167 215.952 295.943 217.649 295.495 219.185C295.111 220.656 294.567 222.033 293.863 223.312C295.335 221.905 296.647 220.528 297.799 219.185C298.951 217.841 299.943 216.656 300.775 215.632C302.823 213.2 304.839 210.704 306.823 208.145C308.871 205.521 310.791 203.024 312.583 200.656L313.928 201.136C311.048 204.976 308.487 208.304 306.247 211.12C304.071 213.936 302.12 216.368 300.392 218.416C298.728 220.336 296.999 222.161 295.207 223.889C293.479 225.552 291.623 227.057 289.64 228.4C287.656 229.68 285.511 230.672 283.207 231.376C280.967 232.144 278.503 232.528 275.815 232.528C273.32 232.528 271.207 232.112 269.479 231.28C267.751 230.512 266.343 229.552 265.255 228.4C264.167 227.184 263.399 225.872 262.951 224.464C262.439 222.992 262.184 221.648 262.184 220.433C262.184 218.641 262.471 217.008 263.047 215.536C263.559 214.064 264.232 212.753 265.063 211.601C265.831 210.449 266.695 209.456 267.655 208.624C268.615 207.728 269.479 206.96 270.247 206.32L270.919 207.185C268.487 209.04 266.631 211.088 265.352 213.328C264.008 215.568 263.335 217.776 263.335 219.952C263.335 221.488 263.623 222.96 264.199 224.368C264.775 225.712 265.576 226.896 266.6 227.92C267.56 228.944 268.679 229.776 269.959 230.416C271.303 230.992 272.712 231.28 274.184 231.28C275.911 231.28 277.704 231.024 279.56 230.512C281.479 229.936 283.239 228.976 284.839 227.632C286.439 226.288 287.751 224.496 288.775 222.256C289.863 220.016 290.407 217.2 290.407 213.809C290.407 211.185 289.991 208.688 289.159 206.32C288.391 203.952 287.527 201.68 286.567 199.504C285.671 197.328 284.807 195.248 283.976 193.265C283.208 191.281 282.823 189.36 282.823 187.504C282.823 186.864 282.855 186.416 282.919 186.16C280.871 188.592 278.855 191.12 276.871 193.744C274.887 196.304 272.999 198.768 271.207 201.136L269.863 200.656C272.743 196.816 275.303 193.488 277.543 190.672C279.847 187.792 281.959 185.232 283.879 182.992C284.839 180.944 286.311 179.217 288.295 177.809C290.279 176.401 292.391 175.696 294.631 175.696ZM88.7432 104.072H87.207C87.015 99.4003 86.5673 95.2081 85.8633 91.4961C85.6073 89.8961 85.2556 88.3597 84.8076 86.8877C84.3597 85.352 83.8156 84.0083 83.1758 82.8564C82.5998 81.6406 81.8954 80.6805 81.0635 79.9766C80.2315 79.2726 79.2715 78.92 78.1836 78.9199H64.2637V112.809H70.0234C71.4313 112.809 72.4874 112.168 73.1914 110.889C73.8953 109.545 74.4075 108.072 74.7275 106.473C75.0475 104.617 75.207 102.504 75.207 100.136H76.7432V127.208H75.207C75.207 124.84 75.0475 122.728 74.7275 120.872C74.4075 119.272 73.8954 117.832 73.1914 116.552C72.5514 115.208 71.527 114.536 70.1191 114.536H64.2637V152.072H78.1836C79.2714 152.072 80.2316 151.72 81.0635 151.017C81.8955 150.249 82.5998 149.288 83.1758 148.136C83.8156 146.92 84.3597 145.576 84.8076 144.104C85.2556 142.568 85.6073 141.032 85.8633 139.496C86.5673 135.784 87.015 131.592 87.207 126.92H88.7432L87.207 153.992H52.0117C52.316 154.055 52.6168 154.122 52.9141 154.192C55.6019 154.832 58.1302 155.728 60.498 156.88C62.8658 157.968 65.0742 159.248 67.1221 160.72C69.1701 162.128 71.1869 163.6 73.1709 165.136V175.312H71.8262C71.1862 172.368 70.0024 169.68 68.2744 167.248C66.5464 164.752 64.4344 162.608 61.9385 160.816C59.4425 159.024 56.6262 157.648 53.4902 156.688C50.4184 155.665 47.1867 155.152 43.7949 155.152C39.9551 155.152 36.0508 155.92 32.083 157.456C28.115 158.928 24.4984 161.104 21.2344 163.984C18.0345 166.864 15.4103 170.448 13.3623 174.736C11.3144 178.96 10.291 183.824 10.291 189.328C10.291 194.128 11.1865 198.96 12.9785 203.824C14.8345 208.624 17.3943 212.976 20.6582 216.88C23.9221 220.72 27.8263 223.856 32.3701 226.288C36.978 228.72 42.0343 229.936 47.5381 229.937C48.0501 229.937 48.9149 229.904 50.1309 229.84C51.3468 229.712 52.7229 229.521 54.2588 229.265C55.8587 228.945 57.4586 228.496 59.0586 227.92C60.7225 227.344 62.2264 226.576 63.5703 225.616C64.9783 224.592 66.1304 223.344 67.0264 221.872C67.9223 220.336 68.3701 218.512 68.3701 216.4V203.152C68.3701 202.064 68.0185 201.232 67.3145 200.656C66.6105 200.08 65.7784 199.632 64.8184 199.312C63.9224 198.993 62.9942 198.8 62.0342 198.736C61.1384 198.672 60.4665 198.641 60.0186 198.641H59.5381V196.72H81.4268V198.641H80.9463C80.4983 198.641 79.7946 198.672 78.835 198.736C77.939 198.8 77.0107 198.993 76.0508 199.312C75.1548 199.632 74.3544 200.08 73.6504 200.656C72.9465 201.232 72.5947 202.064 72.5947 203.152V221.488C70.0347 223.984 67.3463 225.936 64.5303 227.344C61.7785 228.752 59.1867 229.808 56.7549 230.512C54.3229 231.152 52.1783 231.536 50.3223 231.664C48.4664 231.856 47.2181 231.952 46.5781 231.952H46.0986C40.6586 231.952 35.5383 230.928 30.7383 228.88C25.9384 226.768 21.746 223.953 18.1621 220.433C14.5781 216.849 11.7302 212.656 9.61816 207.856C7.57016 203.056 6.54688 197.936 6.54688 192.496C6.54689 186.48 7.69896 181.072 10.0029 176.272C12.3069 171.408 15.251 167.28 18.835 163.888C22.4187 160.432 26.3866 157.809 30.7383 156.017C35.0901 154.161 39.3143 153.232 43.4102 153.232H43.9863C46.6117 153.232 49.051 153.439 51.3037 153.854V152.072C52.9034 152.072 54.3432 151.944 55.623 151.688C56.711 151.432 57.7036 151.016 58.5996 150.44C59.5595 149.865 60.0716 149 60.1357 147.849V83.1445C60.0717 81.9925 59.5596 81.1278 58.5996 80.5518C57.7036 79.9758 56.711 79.5597 55.623 79.3037C54.3432 79.0478 52.9034 78.9199 51.3037 78.9199V77H87.207L88.7432 104.072ZM155.913 178.192C158.921 178.192 161.066 178.96 162.346 180.496C163.69 181.968 164.361 183.921 164.361 186.353C164.361 188.144 164.041 190.161 163.401 192.4C162.761 194.64 161.866 196.976 160.714 199.408C159.626 201.776 158.313 204.208 156.777 206.704C155.241 209.2 153.577 211.6 151.785 213.904H151.882C153.866 213.904 155.658 213.52 157.258 212.752C158.858 211.92 160.33 210.897 161.674 209.681C163.018 208.401 164.298 206.96 165.514 205.36C166.73 203.76 167.945 202.192 169.161 200.656L170.506 201.136C169.354 202.672 168.137 204.273 166.857 205.937C165.578 207.536 164.17 209.04 162.634 210.448C161.162 211.792 159.529 212.913 157.737 213.809C155.945 214.704 153.994 215.152 151.882 215.152H150.825C149.033 217.456 147.145 219.6 145.161 221.584C143.177 223.568 141.194 225.297 139.21 226.769C137.226 228.241 135.274 229.393 133.354 230.225C131.434 231.057 129.641 231.473 127.978 231.473C125.546 231.473 123.498 230.416 121.834 228.304C120.106 226.192 119.241 223.408 119.241 219.952C119.241 216.944 119.818 213.84 120.97 210.641C121.329 209.562 121.734 208.494 122.185 207.437C121.257 208.484 120.273 209.49 119.228 210.448C117.756 211.792 116.123 212.913 114.331 213.809C112.539 214.704 110.587 215.152 108.476 215.152H107.419C105.627 217.456 103.739 219.6 101.755 221.584C99.7709 223.568 97.7876 225.297 95.8037 226.769C93.8197 228.241 91.8673 229.393 89.9473 230.225C88.0273 231.057 86.2352 231.473 84.5713 231.473C82.1393 231.473 80.0917 230.416 78.4277 228.304C76.6998 226.192 75.835 223.408 75.835 219.952C75.835 216.944 76.4116 213.84 77.5635 210.641C78.6515 207.377 80.1552 204.208 82.0752 201.136C83.9312 198.064 86.1076 195.152 88.6035 192.4C91.0995 189.584 93.6909 187.12 96.3789 185.008C99.1309 182.896 101.884 181.233 104.636 180.017C107.451 178.801 110.075 178.192 112.507 178.192C115.515 178.192 117.659 178.96 118.939 180.496C120.283 181.968 120.955 183.921 120.955 186.353C120.955 188.144 120.635 190.161 119.995 192.4C119.355 194.64 118.46 196.976 117.308 199.408C116.22 201.776 114.907 204.208 113.371 206.704C111.835 209.2 110.171 211.6 108.379 213.904H108.476C110.459 213.904 112.252 213.52 113.852 212.752C115.451 211.92 116.924 210.897 118.268 209.681C119.612 208.401 120.891 206.96 122.107 205.36C123.323 203.76 124.539 202.192 125.755 200.656L125.771 200.662C127.563 197.764 129.643 195.01 132.01 192.4C134.506 189.584 137.097 187.12 139.785 185.008C142.537 182.896 145.29 181.233 148.042 180.017C150.858 178.801 153.481 178.192 155.913 178.192ZM112.987 179.632C111.515 179.632 109.659 180.272 107.419 181.552C105.179 182.768 102.843 184.465 100.411 186.641C97.9792 188.753 95.5154 191.281 93.0195 194.225C90.5876 197.105 88.3795 200.208 86.3955 203.536C84.4115 206.8 82.8117 210.225 81.5957 213.809C80.3798 217.393 79.7715 220.912 79.7715 224.368C79.7715 225.776 80.2512 227.088 81.2109 228.304C82.1069 229.456 83.2273 230.032 84.5713 230.032C86.1072 230.032 87.7389 229.648 89.4668 228.88C91.1947 228.048 92.9551 226.96 94.7471 225.616C96.6031 224.208 98.4277 222.576 100.22 220.72C102.076 218.8 103.868 216.784 105.596 214.672C104.06 214.096 102.939 213.168 102.235 211.889C101.595 210.545 101.275 209.232 101.275 207.952C101.275 206.032 101.691 204.24 102.523 202.576C103.355 200.848 104.411 199.344 105.691 198.064C106.971 196.72 108.443 195.664 110.107 194.896C111.771 194.129 113.403 193.744 115.003 193.744C116.091 193.744 116.987 193.905 117.691 194.225C118.779 191.153 119.323 188.464 119.323 186.16C119.323 184.176 118.811 182.608 117.787 181.456C116.827 180.24 115.227 179.632 112.987 179.632ZM156.394 179.632C154.922 179.632 153.065 180.272 150.825 181.552C148.585 182.768 146.249 184.465 143.817 186.641C141.385 188.753 138.922 191.281 136.426 194.225C133.994 197.105 131.786 200.208 129.802 203.536C127.818 206.8 126.218 210.225 125.002 213.809C123.786 217.393 123.178 220.912 123.178 224.368C123.178 225.776 123.657 227.088 124.617 228.304C125.513 229.456 126.634 230.032 127.978 230.032C129.513 230.032 131.145 229.648 132.873 228.88C134.601 228.048 136.361 226.96 138.153 225.616C140.009 224.208 141.834 222.576 143.626 220.72C145.482 218.8 147.274 216.784 149.002 214.672C147.466 214.096 146.346 213.168 145.642 211.889C145.002 210.545 144.682 209.232 144.682 207.952C144.682 206.032 145.098 204.24 145.93 202.576C146.762 200.848 147.818 199.344 149.098 198.064C150.378 196.72 151.85 195.664 153.514 194.896C155.178 194.129 156.809 193.744 158.409 193.744C159.497 193.744 160.394 193.905 161.098 194.225C162.186 191.153 162.729 188.464 162.729 186.16C162.729 184.176 162.217 182.608 161.193 181.456C160.233 180.24 158.633 179.632 156.394 179.632ZM114.907 194.992C113.499 194.992 112.059 195.344 110.587 196.048C109.115 196.752 107.772 197.712 106.556 198.928C105.404 200.144 104.443 201.521 103.675 203.057C102.907 204.592 102.523 206.224 102.523 207.952V208.816C102.715 210.096 103.163 211.152 103.867 211.984C104.571 212.752 105.435 213.296 106.459 213.616C108.699 210.736 110.748 207.728 112.604 204.592C114.523 201.392 116.059 198.352 117.211 195.473C116.635 195.153 115.867 194.992 114.907 194.992ZM158.313 194.992C156.905 194.992 155.465 195.344 153.993 196.048C152.521 196.752 151.178 197.712 149.962 198.928C148.81 200.144 147.849 201.521 147.081 203.057C146.313 204.592 145.93 206.224 145.93 207.952V208.816C146.122 210.096 146.569 211.152 147.273 211.984C147.977 212.752 148.841 213.296 149.865 213.616C152.105 210.736 154.154 207.728 156.01 204.592C157.93 201.392 159.465 198.352 160.617 195.473C160.041 195.153 159.273 194.992 158.313 194.992ZM242.838 179.152C241.373 179.152 239.74 179.637 237.939 180.606C237.734 180.795 237.53 180.98 237.326 181.16C234.737 183.505 232.313 185.308 230.06 186.571C229.553 187.053 229.045 187.557 228.534 188.08C225.974 190.704 223.478 193.68 221.046 197.008C218.614 200.272 216.47 203.568 214.614 206.896C219.414 206.384 223.83 205.2 227.861 203.344C231.893 201.424 235.35 199.248 238.229 196.816C241.109 194.384 243.35 191.92 244.95 189.424C246.55 186.864 247.35 184.688 247.35 182.896C247.35 181.745 246.966 180.848 246.198 180.208C245.494 179.504 244.374 179.152 242.838 179.152ZM269.991 151.888C270.631 151.888 271.175 152.113 271.623 152.561C272.071 152.945 272.296 153.584 272.296 154.48C272.296 155.312 272.007 156.208 271.432 157.168C270.856 158.064 270.184 159.024 269.416 160.048C268.648 161.072 267.848 162.16 267.016 163.312C266.184 164.4 265.512 165.553 265 166.769H263.848C264.36 165.681 264.711 164.56 264.903 163.408C265.159 162.192 265.351 161.04 265.479 159.952C265.607 158.864 265.735 157.84 265.863 156.88C266.055 155.856 266.312 154.96 266.632 154.192C266.952 153.424 267.431 152.848 268.071 152.464C268.711 152.08 269.351 151.888 269.991 151.888ZM392.03 61.2559C395.678 61.2559 398.495 61.7363 400.479 62.6963C402.526 63.5922 404.03 64.6801 404.99 65.96C405.95 67.1758 406.527 68.3599 406.719 69.5117C406.911 70.6634 407.007 71.4958 407.007 72.0078C407.007 74.8237 406.302 77.4479 404.895 79.8799C403.551 82.3119 401.951 84.5843 400.095 86.6963L399.23 85.832C399.486 85.448 399.967 84.8398 400.671 84.0078C401.375 83.1759 402.111 82.1841 402.879 81.0322C403.647 79.8162 404.319 78.472 404.895 77C405.47 75.528 405.759 73.9281 405.759 72.2002C405.759 71.3682 405.631 70.4082 405.375 69.3203C405.119 68.1683 404.574 67.1123 403.742 66.1523C402.91 65.1284 401.695 64.2645 400.095 63.5605C398.495 62.8566 396.383 62.5039 393.759 62.5039C390.943 62.5039 388.223 62.9526 385.599 63.8486C383.039 64.6806 380.607 65.8318 378.303 67.3037C376.063 68.7757 374.014 70.4399 372.158 72.2959C370.302 74.1519 368.702 76.1044 367.358 78.1523C366.079 80.2001 365.055 82.2481 364.287 84.2959C363.583 86.2799 363.23 88.1363 363.23 89.8643C363.23 90.6962 363.327 91.4967 363.519 92.2646C364.223 92.2006 364.927 92.168 365.631 92.168C366.335 92.104 367.038 92.0723 367.742 92.0723C371.262 92.0723 373.758 92.5519 375.23 93.5117C376.702 94.4077 377.438 95.3686 377.438 96.3926C377.438 97.4804 376.895 98.3127 375.807 98.8887C374.783 99.4646 373.534 99.752 372.062 99.752C370.207 99.7519 368.318 99.3042 366.398 98.4082C364.479 97.4483 362.943 95.9442 361.791 93.8965C357.119 94.8565 352.799 96.712 348.831 99.4639C344.927 102.152 341.534 105.449 338.654 109.353C335.774 113.256 333.535 117.608 331.935 122.408C330.335 127.208 329.534 132.136 329.534 137.192C329.534 140.392 329.983 143.433 330.879 146.312C331.839 149.128 333.343 151.624 335.391 153.8C337.439 155.912 340.095 157.576 343.358 158.792C346.622 160.072 350.623 160.712 355.358 160.712C361.182 160.712 366.687 159.656 371.871 157.544C377.055 155.496 381.566 152.744 385.406 149.288C389.31 145.832 392.383 141.896 394.623 137.48C396.863 133.001 397.982 128.36 397.982 123.561C397.982 121.001 397.535 118.889 396.639 117.225C395.743 115.497 394.622 114.152 393.278 113.192C391.998 112.168 390.591 111.464 389.055 111.08C387.583 110.632 386.207 110.408 384.927 110.408C382.751 110.408 380.702 110.793 378.782 111.561C376.862 112.265 375.07 113.225 373.406 114.44C371.742 115.592 370.207 116.937 368.799 118.473C367.391 120.009 366.143 121.576 365.055 123.176C362.431 126.952 360.191 131.208 358.335 135.944C358.079 135.88 357.695 135.72 357.183 135.464C357.567 134.312 358.047 133 358.623 131.528C359.263 130.056 359.999 128.553 360.831 127.017C361.663 125.481 362.59 123.944 363.614 122.408C364.702 120.808 365.854 119.336 367.07 117.992C370.078 114.408 373.183 111.592 376.383 109.544C379.647 107.432 382.783 105.864 385.791 104.84C388.799 103.752 391.583 103.08 394.143 102.824C396.767 102.504 398.975 102.344 400.767 102.344C403.711 102.344 406.623 102.504 409.503 102.824C412.383 103.144 415.263 103.529 418.143 103.977C421.087 104.361 424.031 104.712 426.975 105.032C429.919 105.352 432.894 105.512 435.902 105.512C439.166 105.512 442.239 105.16 445.119 104.456C447.999 103.688 450.527 102.536 452.703 101C454.879 99.4641 456.607 97.5123 457.887 95.1445C459.167 92.7766 459.807 89.9602 459.807 86.6963L461.055 86.6006V87.1758C461.055 87.8158 460.959 88.8083 460.767 90.1523C460.639 91.4963 460.254 93.0001 459.614 94.6641C459.038 96.264 458.207 97.9283 457.119 99.6562C456.031 101.32 454.526 102.857 452.606 104.265C450.751 105.673 448.446 106.824 445.694 107.72C442.942 108.616 439.647 109.064 435.807 109.064C432.799 109.064 429.823 108.776 426.879 108.2C423.935 107.624 420.991 107.016 418.047 106.376C415.103 105.672 412.127 105.032 409.119 104.456C406.175 103.88 403.167 103.592 400.095 103.592C396.831 103.592 393.182 104.137 389.15 105.225C385.119 106.249 381.118 108.041 377.15 110.601C379.71 109.513 382.238 108.968 384.734 108.968C387.678 108.968 390.239 109.352 392.415 110.12C394.591 110.888 396.383 111.976 397.791 113.384C399.199 114.728 400.255 116.329 400.959 118.185C401.663 119.976 402.015 121.928 402.015 124.04C402.015 126.664 401.502 129.416 400.479 132.296C399.519 135.176 398.111 138.024 396.255 140.84C394.399 143.656 392.095 146.344 389.343 148.904C386.655 151.464 383.583 153.704 380.127 155.624C376.671 157.544 372.83 159.08 368.606 160.232C364.447 161.384 359.999 161.96 355.263 161.96C350.271 161.96 345.759 161.288 341.727 159.944C337.759 158.664 334.367 156.841 331.551 154.473C328.799 152.169 326.687 149.384 325.215 146.12C323.743 142.792 323.007 139.176 323.007 135.272C323.007 129.64 324.095 124.424 326.271 119.624C328.447 114.76 331.294 110.472 334.814 106.76C338.398 102.984 342.463 99.8802 347.007 97.4482C351.615 95.0163 356.319 93.4164 361.119 92.6484C360.543 91.1125 360.255 89.4164 360.255 87.5605C360.255 84.7447 360.958 81.8004 362.366 78.7285C363.774 75.6565 365.823 72.8403 368.511 70.2803C371.199 67.6563 374.527 65.5126 378.495 63.8486C382.463 62.1207 386.975 61.2559 392.03 61.2559ZM368.318 93.3203C366.846 93.3203 365.374 93.4164 363.902 93.6084C364.67 95.3363 365.822 96.5845 367.358 97.3525C368.958 98.1205 370.495 98.5039 371.967 98.5039C373.055 98.5039 373.919 98.3444 374.559 98.0244C375.263 97.6404 375.614 97.1282 375.614 96.4883C375.614 95.7843 375.07 95.08 373.982 94.376C372.894 93.6721 371.006 93.3203 368.318 93.3203ZM219.143 81.416C220.039 81.416 220.615 81.8004 220.871 82.5684C221.191 83.2723 221.095 84.1681 220.583 85.2559C220.071 86.3437 219.303 87.2721 218.279 88.04C217.255 88.808 216.263 89.1924 215.303 89.1924C214.407 89.1923 213.798 88.808 213.479 88.04C213.223 87.2721 213.351 86.3437 213.863 85.2559C214.375 84.1681 215.143 83.2723 216.167 82.5684C217.255 81.8005 218.247 81.4161 219.143 81.416ZM39.7441 67.2959V6.43262C39.7441 5.15264 39.2637 4.22444 38.3037 3.64844C37.4078 3.00848 36.416 2.55972 35.3281 2.30371C34.0482 1.98373 32.576 1.85595 30.9121 1.91992V0H50.5918V1.91992C48.9278 1.85592 47.4558 1.98373 46.1758 2.30371C45.0878 2.55971 44.0635 3.00844 43.1035 3.64844C42.2077 4.22445 41.7598 5.15276 41.7598 6.43262L41.6641 76.9922H39.8398L10.752 9.3125L10.8477 70.5605C10.8477 71.7762 11.2958 72.7038 12.1914 73.3438C13.1514 73.9197 14.1757 74.3685 15.2637 74.6885C16.5436 74.9445 18.0157 75.0723 19.6797 75.0723V76.9922H0V75.0723C1.66391 75.0723 3.13607 74.9445 4.41602 74.6885C5.50396 74.3685 6.49564 73.9197 7.3916 73.3438C8.35146 72.7038 8.83194 71.7763 8.83203 70.5605V5.95215C8.83202 4.86417 8.38329 4.06375 7.4873 3.55176C6.59144 2.97593 5.5995 2.55966 4.51172 2.30371C3.16776 2.04773 1.69564 1.91992 0.0957031 1.91992V0H10.8477L39.7441 67.2959ZM136.731 1.53613C134.683 4.22413 132.316 7.55251 129.628 11.5205C126.94 15.4245 123.835 20.0961 120.315 25.5361H133.275V26.8799H119.451C117.595 29.7598 115.612 32.8001 113.5 36C111.452 39.2 109.276 42.6245 106.972 46.2725C105.436 48.7684 103.995 51.2321 102.651 53.6641C101.371 56.0321 100.219 58.3045 99.1953 60.4805C98.1714 62.5924 97.3719 64.5767 96.7959 66.4326C96.22 68.2243 95.9317 69.7919 95.9316 71.1357C95.9316 72.4157 96.2516 73.4083 96.8916 74.1123C97.4676 74.8162 98.4919 75.168 99.9639 75.168C101.756 75.1679 103.868 74.2397 106.3 72.3838C108.732 70.5278 111.26 68.1918 113.884 65.376C116.572 62.4961 119.228 59.3923 121.852 56.0645C124.539 52.7365 127.003 49.6002 129.243 46.6562H129.244C130.793 44.0973 132.551 41.6012 134.519 39.168C136.95 36.1601 139.51 33.5041 142.198 31.2002C144.95 28.8322 147.766 26.9441 150.646 25.5361C153.526 24.1282 156.343 23.4238 159.095 23.4238C161.527 23.4239 163.319 23.9043 164.471 24.8643C165.686 25.8242 166.294 27.1361 166.294 28.7998C166.294 30.9117 165.398 33.3439 163.606 36.0957C161.878 38.8477 159.446 41.5362 156.311 44.1602C153.175 46.7202 149.43 48.9926 145.078 50.9766C140.79 52.8965 136.086 54.1437 130.966 54.7197C129.558 57.4077 128.438 60.0001 127.606 62.4961C126.774 64.9921 126.358 67.1684 126.358 69.0244C126.358 71.0083 126.871 72.6083 127.895 73.8242C128.919 74.9761 130.55 75.5517 132.79 75.5518C135.094 75.5518 137.494 75.0079 139.99 73.9199C142.486 72.7679 144.983 71.2959 147.479 69.5039C149.974 67.712 152.375 65.7277 154.679 63.5518C156.983 61.3759 159.126 59.232 161.11 57.1201C163.094 54.9442 164.822 52.9282 166.294 51.0723C167.83 49.2163 169.015 47.7442 169.847 46.6562L171.19 47.1357C170.23 48.4797 168.918 50.1766 167.254 52.2246C165.654 54.2085 163.798 56.3207 161.687 58.5605C159.639 60.7365 157.398 62.9446 154.966 65.1846C152.534 67.3604 150.07 69.3439 147.574 71.1357C145.142 72.8637 142.679 74.2724 140.183 75.3604C137.751 76.4483 135.446 76.9921 133.271 76.9922C129.303 76.9922 126.486 76.0323 124.822 74.1123C123.094 72.1283 122.23 69.6003 122.23 66.5283C122.23 63.9044 122.774 61.0245 123.862 57.8887C124.29 56.5792 124.791 55.2695 125.363 53.96C122.769 57.2605 120.415 60.1066 118.3 62.4961C114.908 66.3361 111.964 69.3445 109.468 71.5205C107.036 73.6965 104.956 75.1685 103.228 75.9365C101.5 76.6405 99.9631 76.9922 98.6191 76.9922C96.7633 76.9921 95.1632 76.2878 93.8193 74.8799C92.4755 73.4719 91.8037 71.3598 91.8037 68.5439C91.8038 66.112 92.412 63.4561 93.6279 60.5762C94.2444 59.0008 94.9903 57.3528 95.8633 55.6309C93.894 58.1393 92.0993 60.364 90.4775 62.3037C87.2137 66.2075 84.4299 69.2479 82.126 71.4238C79.8862 73.5996 77.9978 75.0718 76.4619 75.8398C74.99 76.6078 73.6456 76.9922 72.4297 76.9922C72.1097 76.9922 71.6618 76.9278 71.0859 76.7998C70.5099 76.6718 69.9334 76.4162 69.3574 76.0322C68.7814 75.5842 68.2693 74.976 67.8213 74.208C67.4374 73.4401 67.2451 72.4482 67.2451 71.2324C67.2451 69.7604 67.6612 67.9358 68.4932 65.7598C66.1892 68.8317 63.7899 71.4885 61.2939 73.7285C58.8619 75.9045 56.4935 76.9922 54.1895 76.9922C51.7575 76.9922 49.8377 75.9361 48.4297 73.8242C46.9578 71.7123 46.2217 68.9284 46.2217 65.4727C46.2217 62.5287 46.7655 59.4559 47.8535 56.2559C48.9415 52.992 50.4136 49.7921 52.2695 46.6562C54.1255 43.5204 56.2693 40.5444 58.7012 37.7285C61.1331 34.9126 63.6612 32.4479 66.2852 30.3359C68.9731 28.16 71.6934 26.464 74.4453 25.248C77.1973 23.9681 79.8214 23.3282 82.3174 23.3281C82.6374 23.3281 83.1495 23.3925 83.8535 23.5205C84.5574 23.6485 85.2936 23.9359 86.0615 24.3838C86.8294 24.8317 87.5012 25.472 88.0771 26.3037C88.6531 27.1357 88.9414 28.2561 88.9414 29.6641C88.9414 30.5599 88.8136 31.424 88.5576 32.2559C89.2615 31.1041 89.9334 29.9843 90.5732 28.8965C91.2132 27.7445 91.8859 26.5924 92.5898 25.4404H97.8691C92.6853 33.0562 88.3651 39.5518 84.9092 44.9277C81.5172 50.2397 78.798 54.6885 76.75 58.2725C74.766 61.8564 73.3574 64.7361 72.5254 66.9121C71.6934 69.0241 71.2773 70.6883 71.2773 71.9043C71.2774 72.8001 71.4052 73.5681 71.6611 74.208C71.9811 74.848 72.5895 75.1679 73.4854 75.168C74.8294 75.168 76.5896 74.2398 78.7656 72.3838C80.9415 70.5278 83.3093 68.1918 85.8691 65.376C88.4291 62.56 91.0215 59.4882 93.6455 56.1602C96.3045 52.8681 98.7433 49.7319 100.964 46.7529C102.346 44.5422 103.868 42.2375 105.531 39.8398C108.283 35.8719 111.196 31.6162 114.268 27.0723C114.268 27.0083 114.299 26.9439 114.363 26.8799H103.132V25.5361H115.228C118.556 20.5441 121.5 16.1598 124.06 12.3838C126.619 8.60789 128.924 4.99204 130.972 1.53613H136.731ZM83.373 25.0566C81.9011 25.0568 80.0454 25.6967 77.8057 26.9766C75.5657 28.1926 73.2298 29.8885 70.7979 32.0645C68.3659 34.1765 65.9013 36.7044 63.4053 39.6484C60.9734 42.5283 58.7652 45.6321 56.7812 48.96C54.7972 52.224 53.1974 55.6484 51.9814 59.2324C50.7655 62.8163 50.1572 66.3361 50.1572 69.792C50.1572 71.3919 50.5416 72.768 51.3096 73.9199C52.0136 75.0719 52.9735 75.6484 54.1895 75.6484C55.5334 75.6484 56.9738 75.1046 58.5098 74.0166C60.1098 72.9286 61.7096 71.52 63.3096 69.792C64.9095 68 66.5094 66.0158 68.1094 63.8398C69.7733 61.5999 71.3098 59.3918 72.7178 57.2158C74.1897 54.784 75.7897 52.1922 77.5176 49.4404C79.3096 46.6884 81.1659 43.8405 83.0859 40.8965C84.7499 38.1445 85.902 35.8404 86.542 33.9844C87.246 32.1284 87.5977 30.592 87.5977 29.376C87.5976 27.7761 87.1172 26.6566 86.1572 26.0166C85.1972 25.3766 84.269 25.0566 83.373 25.0566ZM160.15 25.1523C158.23 25.1523 156.022 25.9844 153.526 27.6484C151.03 29.2484 148.471 31.3922 145.847 34.0801C143.287 36.704 140.79 39.6799 138.358 43.0078C135.926 46.2718 133.783 49.5685 131.927 52.8965C136.727 52.3845 141.142 51.1996 145.174 49.3438C149.206 47.4238 152.662 45.2483 155.542 42.8164C158.422 40.3844 160.663 37.9198 162.263 35.4238C163.862 32.8642 164.662 30.6883 164.662 28.8965C164.662 27.7446 164.279 26.848 163.511 26.208C162.807 25.504 161.686 25.1524 160.15 25.1523Z" fill="black"/>
</svg>
