<svg width="401" height="79" viewBox="0 0 401 79" fill="none" xmlns="http://www.w3.org/2000/svg">
<path d="M0.287984 77.952V50.592H1.91998C1.91998 53.92 2.07998 57.12 2.39998 60.192C2.71998 63.264 3.35998 65.984 4.31998 68.352C5.34398 70.72 6.78398 72.608 8.63998 74.016C10.56 75.424 13.056 76.128 16.128 76.128C18.624 76.128 20.8 75.68 22.656 74.784C24.512 73.824 26.048 72.608 27.264 71.136C28.48 69.6 29.376 67.872 29.952 65.952C30.528 64.032 30.816 62.048 30.816 60C30.816 56.736 30.048 53.92 28.512 51.552C26.976 49.12 25.056 46.912 22.752 44.928C20.512 42.944 18.048 41.088 15.36 39.36C12.736 37.568 10.272 35.648 7.96798 33.6C5.72798 31.552 3.83998 29.28 2.30398 26.784C0.767984 24.288 -1.60933e-05 21.344 -1.60933e-05 17.952C-1.60933e-05 15.712 0.319984 13.568 0.959984 11.52C1.66398 9.47201 2.62398 7.68001 3.83998 6.14401C5.11998 4.54402 6.62398 3.29602 8.35198 2.40002C10.144 1.44001 12.16 0.960012 14.4 0.960012C15.552 0.960012 16.672 1.15201 17.76 1.53602C18.848 1.92002 19.872 2.36802 20.832 2.88002C21.856 3.32801 22.784 3.74401 23.616 4.12802C24.512 4.51202 25.28 4.70402 25.92 4.70402C26.624 4.70402 27.2 4.38402 27.648 3.74402C28.096 3.10401 28.32 2.27201 28.32 1.24801H29.856V25.92H28.32C28.32 21.44 27.936 17.728 27.168 14.784C26.4 11.776 25.344 9.40801 24 7.68002C22.72 5.88801 21.248 4.64001 19.584 3.93601C17.92 3.16801 16.192 2.78401 14.4 2.78401C12.8 2.78401 11.296 3.10401 9.88798 3.74402C8.54398 4.32002 7.32798 5.15202 6.23998 6.24001C5.21598 7.32801 4.38398 8.67201 3.74398 10.272C3.16798 11.872 2.87998 13.664 2.87998 15.648C2.87998 18.464 3.64798 20.992 5.18398 23.232C6.71998 25.472 8.60798 27.584 10.848 29.568C13.152 31.488 15.648 33.376 18.336 35.232C21.024 37.088 23.488 39.104 25.728 41.28C28.032 43.456 29.952 45.856 31.488 48.48C33.024 51.04 33.792 54.048 33.792 57.504C33.792 61.792 33.088 65.28 31.68 67.968C30.336 70.592 28.704 72.672 26.784 74.208C24.864 75.68 22.88 76.672 20.832 77.184C18.848 77.696 17.216 77.952 15.936 77.952C14.528 77.952 13.216 77.792 12 77.472C10.784 77.088 9.66398 76.704 8.63998 76.32C7.67998 75.936 6.81598 75.584 6.04798 75.264C5.27998 74.88 4.57598 74.688 3.93598 74.688C3.03998 74.688 2.46398 75.072 2.20798 75.84C2.01598 76.544 1.91998 77.248 1.91998 77.952H0.287984ZM74.4532 47.52C74.1972 52 73.6532 56.128 72.8212 59.904C71.9892 63.68 70.8692 66.944 69.4612 69.696C68.0532 72.448 66.3572 74.624 64.3732 76.224C62.4532 77.76 60.2132 78.528 57.6532 78.528C54.7092 78.528 51.9892 77.504 49.4932 75.456C47.0612 73.408 44.9492 70.624 43.1572 67.104C41.4292 63.584 40.0532 59.424 39.0292 54.624C38.0692 49.824 37.5892 44.704 37.5892 39.264C37.5892 33.76 38.0692 28.64 39.0292 23.904C40.0532 19.104 41.4292 14.944 43.1572 11.424C44.9492 7.90401 47.0612 5.12001 49.4932 3.07201C51.9892 1.02401 54.7092 1.33514e-05 57.6532 1.33514e-05C59.3812 1.33514e-05 60.7892 0.192013 61.8772 0.576012C62.9652 0.960014 63.9252 1.37601 64.7572 1.82401C65.6532 2.27201 66.4532 2.68801 67.1572 3.07201C67.9252 3.45601 68.7892 3.64801 69.7492 3.64801C70.7092 3.64801 71.4772 3.39201 72.0532 2.88002C72.6932 2.30402 73.0132 1.47202 73.0132 0.384014H74.4532V30.528V30.912H72.7252C72.7252 26.432 72.4372 22.4 71.8612 18.816C71.3492 15.232 70.4852 12.192 69.2692 9.69601C68.1172 7.13601 66.5812 5.18401 64.6612 3.84002C62.7412 2.49601 60.4052 1.82401 57.6532 1.82401C54.9652 1.82401 52.6612 2.78401 50.7412 4.70402C48.8212 6.62401 47.2212 9.28001 45.9412 12.672C44.7252 16 43.8292 19.936 43.2532 24.48C42.6772 29.024 42.3892 33.952 42.3892 39.264C42.3892 44.64 42.6772 49.632 43.2532 54.24C43.8932 58.784 44.8212 62.752 46.0372 66.144C47.3172 69.472 48.9172 72.096 50.8372 74.016C52.7572 75.872 55.0292 76.8 57.6532 76.8C59.9572 76.8 61.9732 76.064 63.7012 74.592C65.4932 73.12 66.9972 71.104 68.2132 68.544C69.4932 65.92 70.4852 62.816 71.1892 59.232C71.9572 55.648 72.4692 51.744 72.7252 47.52H74.4532ZM111.676 17.184C111.676 14.24 111.292 11.84 110.524 9.98402C109.756 8.12801 108.732 6.65601 107.452 5.56802C106.236 4.41602 104.892 3.61601 103.42 3.16801C101.948 2.65602 100.476 2.33602 99.0037 2.20801C98.4917 2.20801 97.8197 2.24001 96.9877 2.30401C96.2197 2.36802 95.4517 2.56002 94.6837 2.88002C93.9797 3.20002 93.3717 3.71202 92.8597 4.41601C92.3477 5.12002 92.0917 6.11202 92.0917 7.39202V34.272H92.4757C98.6837 34.272 103.42 32.96 106.684 30.336C110.012 27.712 111.676 23.328 111.676 17.184ZM121.18 76.128H123.58V77.856H121.372C118.748 77.856 116.668 77.184 115.132 75.84C113.66 74.432 112.476 72.64 111.58 70.464C110.748 68.224 110.108 65.728 109.66 62.976C109.212 60.16 108.7 57.344 108.124 54.528C107.676 52.096 107.196 49.76 106.684 47.52C106.236 45.216 105.628 43.2 104.86 41.472C104.156 39.744 103.196 38.368 101.98 37.344C100.764 36.32 99.1317 35.808 97.0837 35.808C96.0597 35.808 95.1317 35.808 94.2997 35.808C93.4677 35.744 92.7317 35.712 92.0917 35.712V71.52C92.2197 72.672 92.7317 73.536 93.6277 74.112C94.5877 74.688 95.6117 75.104 96.6997 75.36C97.9157 75.616 99.3237 75.744 100.924 75.744V77.664H79.1317V75.744C80.7957 75.744 82.2677 75.616 83.5477 75.36C84.6357 75.04 85.6277 74.592 86.5237 74.016C87.4837 73.376 87.9637 72.448 87.9637 71.232V7.10401C87.9637 5.82401 87.4837 4.89602 86.5237 4.32001C85.6277 3.74401 84.6357 3.29601 83.5477 2.97602C82.2677 2.72001 80.7957 2.59201 79.1317 2.59201V0.672016H96.6997C100.156 0.672016 103.1 1.12002 105.532 2.01602C107.964 2.91202 109.948 4.16002 111.484 5.76001C113.02 7.29601 114.14 9.12001 114.844 11.232C115.548 13.28 115.9 15.456 115.9 17.76C115.9 19.04 115.708 20.544 115.324 22.272C114.94 23.936 114.172 25.632 113.02 27.36C111.932 29.024 110.332 30.56 108.22 31.968C106.172 33.376 103.452 34.4 100.06 35.04C102.364 35.552 104.22 36.448 105.628 37.728C107.1 38.944 108.252 40.384 109.084 42.048C109.98 43.712 110.684 45.568 111.196 47.616C111.708 49.6 112.188 51.616 112.636 53.664C113.212 56.416 113.724 59.136 114.172 61.824C114.62 64.512 115.132 66.912 115.708 69.024C116.284 71.136 116.988 72.864 117.82 74.208C118.652 75.488 119.772 76.128 121.18 76.128ZM143.911 47.616H162.343L153.127 10.56L143.911 47.616ZM172.231 70.272C172.295 70.464 172.455 70.88 172.711 71.52C172.967 72.16 173.415 72.8 174.055 73.44C174.695 74.08 175.559 74.656 176.647 75.168C177.735 75.68 179.143 75.936 180.871 75.936V77.856H160.135V75.936C162.503 75.936 164.231 75.68 165.319 75.168C166.471 74.592 167.239 73.984 167.623 73.344C168.007 72.64 168.167 71.968 168.103 71.328C168.039 70.688 167.975 70.272 167.911 70.08L162.823 49.44H143.431L138.343 70.176C138.279 70.432 138.215 70.88 138.151 71.52C138.087 72.16 138.279 72.832 138.727 73.536C139.175 74.176 139.943 74.752 141.031 75.264C142.183 75.712 143.879 75.936 146.119 75.936V77.856H127.495V75.936C127.623 75.936 128.071 75.936 128.839 75.936C129.607 75.872 130.471 75.68 131.431 75.36C132.391 75.04 133.319 74.496 134.215 73.728C135.111 72.96 135.751 71.84 136.135 70.368L153.511 0.768015H154.855L172.231 70.272ZM218.082 17.376C218.082 14.432 217.698 12.032 216.93 10.176C216.162 8.32001 215.138 6.84801 213.858 5.76001C212.642 4.60801 211.298 3.80801 209.826 3.36002C208.354 2.84801 206.882 2.52802 205.41 2.40002C204.898 2.40002 204.226 2.43202 203.394 2.49602C202.626 2.56001 201.858 2.75201 201.09 3.07201C200.386 3.39201 199.778 3.90401 199.266 4.60802C198.754 5.31202 198.498 6.30401 198.498 7.58401V34.464H198.882C205.09 34.464 209.826 33.152 213.09 30.528C216.418 27.904 218.082 23.52 218.082 17.376ZM198.498 35.904V71.712C198.626 72.864 199.138 73.728 200.034 74.304C200.994 74.88 202.018 75.296 203.106 75.552C204.322 75.808 205.73 75.936 207.33 75.936V77.856H185.538V75.936C187.202 75.936 188.674 75.808 189.954 75.552C191.042 75.232 192.034 74.784 192.93 74.208C193.89 73.568 194.37 72.64 194.37 71.424V7.29602C194.37 6.01601 193.89 5.08801 192.93 4.51201C192.034 3.87201 191.042 3.42401 189.954 3.16801C188.674 2.84801 187.202 2.72001 185.538 2.78401V0.864014H203.106C206.562 0.864014 209.506 1.31201 211.938 2.20801C214.37 3.10401 216.354 4.32001 217.89 5.85601C219.426 7.39202 220.546 9.21602 221.25 11.328C221.954 13.376 222.306 15.552 222.306 17.856C222.306 19.328 222.05 21.12 221.538 23.232C221.026 25.28 219.938 27.264 218.274 29.184C216.61 31.04 214.242 32.64 211.17 33.984C208.098 35.264 204.002 35.904 198.882 35.904H198.498ZM243.249 76.032C246.065 76.032 248.433 75.552 250.353 74.592C252.273 73.632 253.841 72.416 255.057 70.944C256.273 69.472 257.201 67.872 257.841 66.144C258.481 64.352 258.929 62.624 259.185 60.96C259.505 59.296 259.665 57.824 259.665 56.544C259.729 55.2 259.761 54.24 259.761 53.664C259.761 49.696 259.249 46.528 258.225 44.16C257.265 41.792 255.985 40 254.385 38.784C252.849 37.504 251.089 36.704 249.105 36.384C247.121 36 245.169 35.808 243.249 35.808C242.225 35.808 241.233 35.84 240.273 35.904C239.377 35.904 238.481 35.936 237.585 36V70.656C237.649 71.808 237.841 72.736 238.161 73.44C238.545 74.144 238.993 74.688 239.505 75.072C240.081 75.456 240.689 75.712 241.329 75.84C242.033 75.968 242.673 76.032 243.249 76.032ZM257.169 17.28C257.169 13.44 256.497 10.528 255.153 8.54401C253.873 6.49602 252.401 5.02402 250.737 4.12802C249.137 3.23201 247.633 2.72001 246.225 2.59201C244.817 2.46402 244.017 2.40002 243.825 2.40002C243.249 2.40002 242.577 2.46402 241.809 2.59201C241.105 2.65601 240.433 2.88001 239.793 3.26402C239.217 3.64802 238.705 4.19201 238.257 4.89601C237.809 5.53601 237.585 6.43201 237.585 7.58401V34.464C242.193 34.464 245.809 33.888 248.433 32.736C251.057 31.52 253.009 30.048 254.289 28.32C255.633 26.528 256.433 24.64 256.689 22.656C257.009 20.608 257.169 18.816 257.169 17.28ZM241.329 77.856H224.625V75.936H225.105C225.553 75.936 226.225 75.904 227.121 75.84C228.081 75.776 229.009 75.584 229.905 75.264C230.865 74.944 231.697 74.496 232.401 73.92C233.105 73.28 233.457 72.448 233.457 71.424V7.29602C233.457 6.40002 233.169 5.66402 232.593 5.08802C232.081 4.44802 231.409 3.96802 230.577 3.64801C229.745 3.26401 228.785 3.00801 227.697 2.88002C226.673 2.75201 225.649 2.68801 224.625 2.68801V0.864014H242.193C245.649 0.864014 248.593 1.31201 251.025 2.20801C253.457 3.10401 255.441 4.32001 256.977 5.85601C258.513 7.39202 259.633 9.21602 260.337 11.328C261.041 13.376 261.393 15.552 261.393 17.856C261.393 19.072 261.233 20.48 260.913 22.08C260.593 23.68 259.953 25.28 258.993 26.88C258.033 28.48 256.657 29.984 254.865 31.392C253.073 32.8 250.737 33.888 247.857 34.656C250.673 35.104 253.105 36 255.153 37.344C257.265 38.624 258.993 40.192 260.337 42.048C261.745 43.84 262.769 45.856 263.409 48.096C264.113 50.272 264.465 52.512 264.465 54.816C264.465 57.632 263.953 60.416 262.929 63.168C261.969 65.92 260.497 68.384 258.513 70.56C256.593 72.736 254.193 74.496 251.313 75.84C248.433 77.184 245.105 77.856 241.329 77.856ZM289.51 1.92002C286.822 1.92002 284.518 2.88002 282.598 4.80001C280.678 6.72002 279.078 9.37602 277.798 12.768C276.582 16.096 275.686 20.032 275.11 24.576C274.534 29.12 274.246 34.048 274.246 39.36C274.246 44.736 274.534 49.728 275.11 54.336C275.75 58.88 276.678 62.848 277.894 66.24C279.174 69.568 280.774 72.192 282.694 74.112C284.614 75.968 286.886 76.896 289.51 76.896C292.198 76.896 294.502 75.936 296.422 74.016C298.342 72.096 299.91 69.44 301.126 66.048C302.406 62.656 303.334 58.688 303.91 54.144C304.486 49.536 304.774 44.608 304.774 39.36C304.774 33.984 304.454 29.024 303.814 24.48C303.238 19.936 302.31 16 301.03 12.672C299.814 9.28001 298.246 6.65601 296.326 4.80001C294.406 2.88002 292.134 1.92002 289.51 1.92002ZM289.51 78.624C286.566 78.624 283.846 77.6 281.35 75.552C278.918 73.504 276.806 70.72 275.014 67.2C273.286 63.68 271.91 59.52 270.886 54.72C269.926 49.92 269.446 44.8 269.446 39.36C269.446 33.856 269.926 28.736 270.886 24C271.91 19.2 273.286 15.04 275.014 11.52C276.806 8.00001 278.918 5.21601 281.35 3.16801C283.846 1.12001 286.566 0.0960121 289.51 0.0960121C292.454 0.0960121 295.142 1.12001 297.574 3.16801C300.07 5.21601 302.182 8.00001 303.91 11.52C305.702 15.04 307.078 19.2 308.038 24C309.062 28.736 309.574 33.856 309.574 39.36C309.574 44.8 309.062 49.92 308.038 54.72C307.078 59.52 305.702 63.68 303.91 67.2C302.182 70.72 300.07 73.504 297.574 75.552C295.142 77.6 292.454 78.624 289.51 78.624ZM334.51 1.92002C331.822 1.92002 329.518 2.88002 327.598 4.80001C325.678 6.72002 324.078 9.37602 322.798 12.768C321.582 16.096 320.686 20.032 320.11 24.576C319.534 29.12 319.246 34.048 319.246 39.36C319.246 44.736 319.534 49.728 320.11 54.336C320.75 58.88 321.678 62.848 322.894 66.24C324.174 69.568 325.774 72.192 327.694 74.112C329.614 75.968 331.886 76.896 334.51 76.896C337.198 76.896 339.502 75.936 341.422 74.016C343.342 72.096 344.91 69.44 346.126 66.048C347.406 62.656 348.334 58.688 348.91 54.144C349.486 49.536 349.774 44.608 349.774 39.36C349.774 33.984 349.454 29.024 348.814 24.48C348.238 19.936 347.31 16 346.03 12.672C344.814 9.28001 343.246 6.65601 341.326 4.80001C339.406 2.88002 337.134 1.92002 334.51 1.92002ZM334.51 78.624C331.566 78.624 328.846 77.6 326.35 75.552C323.918 73.504 321.806 70.72 320.014 67.2C318.286 63.68 316.91 59.52 315.886 54.72C314.926 49.92 314.446 44.8 314.446 39.36C314.446 33.856 314.926 28.736 315.886 24C316.91 19.2 318.286 15.04 320.014 11.52C321.806 8.00001 323.918 5.21601 326.35 3.16801C328.846 1.12001 331.566 0.0960121 334.51 0.0960121C337.454 0.0960121 340.142 1.12001 342.574 3.16801C345.07 5.21601 347.182 8.00001 348.91 11.52C350.702 15.04 352.078 19.2 353.038 24C354.062 28.736 354.574 33.856 354.574 39.36C354.574 44.8 354.062 49.92 353.038 54.72C352.078 59.52 350.702 63.68 348.91 67.2C347.182 70.72 345.07 73.504 342.574 75.552C340.142 77.6 337.454 78.624 334.51 78.624ZM400.687 77.76H398.479C395.855 77.76 393.807 77.088 392.335 75.744C390.863 74.336 389.679 72.544 388.783 70.368C387.951 68.192 387.311 65.728 386.863 62.976C386.415 60.16 385.903 57.376 385.327 54.624C384.879 52.192 384.399 49.856 383.887 47.616C383.439 45.312 382.831 43.296 382.063 41.568C381.359 39.84 380.399 38.464 379.183 37.44C377.967 36.416 376.335 35.904 374.287 35.904C373.263 35.904 372.335 35.904 371.503 35.904C370.671 35.904 369.935 35.872 369.295 35.808V71.712C369.423 72.864 369.935 73.728 370.831 74.304C371.791 74.88 372.815 75.296 373.903 75.552C375.119 75.808 376.527 75.936 378.127 75.936V77.856H356.335V75.936C357.999 75.936 359.471 75.808 360.751 75.552C361.839 75.232 362.831 74.784 363.727 74.208C364.687 73.568 365.167 72.64 365.167 71.424V7.29602C365.167 6.01601 364.687 5.08801 363.727 4.51201C362.831 3.87201 361.839 3.42401 360.751 3.16801C359.471 2.84801 357.999 2.72001 356.335 2.78401V0.864014H378.127V2.78401C378.127 2.78401 377.647 2.78401 376.687 2.78401C375.791 2.72001 374.767 2.84801 373.615 3.16801C372.527 3.42401 371.535 3.90401 370.639 4.60802C369.743 5.24802 369.295 6.24002 369.295 7.58401V33.888H370.831C372.751 33.888 374.351 33.504 375.631 32.736C376.975 31.968 378.095 30.976 378.991 29.76C379.951 28.48 380.751 27.072 381.391 25.536C382.031 24 382.671 22.464 383.311 20.928C384.079 19.136 384.751 17.344 385.327 15.552C385.967 13.696 386.607 11.936 387.247 10.272C387.951 8.28802 388.079 6.78402 387.631 5.76001C387.247 4.73602 386.607 4.00002 385.711 3.55201C384.751 2.97601 383.535 2.68801 382.063 2.68801V0.768015H399.247V2.68801H398.767C396.847 2.68801 395.215 3.20001 393.871 4.22402C392.591 5.24801 391.439 6.59201 390.415 8.25602C389.455 9.85601 388.591 11.712 387.823 13.824C387.055 15.872 386.223 17.984 385.327 20.16C384.687 21.696 384.079 23.232 383.503 24.768C382.927 26.304 382.223 27.744 381.391 29.088C380.623 30.368 379.631 31.52 378.415 32.544C377.263 33.504 375.791 34.24 373.999 34.752C377.071 34.944 379.535 35.616 381.391 36.768C383.247 37.92 384.687 39.392 385.711 41.184C386.799 42.912 387.631 44.864 388.207 47.04C388.783 49.216 389.295 51.424 389.743 53.664C390.319 56.416 390.831 59.136 391.279 61.824C391.727 64.512 392.239 66.912 392.815 69.024C393.391 71.136 394.095 72.864 394.927 74.208C395.759 75.488 396.879 76.128 398.287 76.128H400.687V77.76Z" fill="black"/>
</svg>
